<svg version="1.1" xmlns="http://www.w3.org/2000/svg" x="0px" y="0px" viewBox="0 0 60 20" enable-background="new 0 0 60 20" xml:space="preserve"><g><rect x="40.8" y="0.8" fill="#F8682C" width="8.8" height="8.8"/>	<rect x="50.4" y="0.8" fill="#91C300" width="8.8" height="8.8"/><rect x="40.8" y="10.4" fill="#00B4F1" width="8.8" height="8.8"/><rect x="50.4" y="10.4" fill="#FFC300" width="8.8" height="8.8"/></g><path fill="#DC4E41" d="M26.5,15.8c-3.2,0-5.9-2.8-5.9-6.2c0-3.3,2.6-5.8,5.9-5.8c1.3,0,2.5,0.5,3.8,1.6l-1.4,1.7 c-0.8-0.7-1.6-1-2.3-1c-2.1,0-3.7,1.6-3.7,3.7c0,2.1,1.8,4,3.8,4c1.6,0,3-1.1,3.5-2.4h-3.9V9.1h6.3v1.1 C32.5,12.9,29.9,15.8,26.5,15.8z M38,7.3h-1.8v5.1H38V7.3z M39.6,8.9h-5.1v1.8h5.1V8.9z"/><path  fill="#3B5998" d="M8.2,18.5v-7.7H5.6v-3h2.6V5.5c0-2.6,1.6-4,3.9-4c1.1,0,2.1,0.1,2.3,0.1v2.7h-1.6 c-1.3,0-1.5,0.6-1.5,1.5v1.9h3l-0.4,3h-2.6v7.8L8.2,18.5z"/></svg>
