<svg version="1.1" xmlns="http://www.w3.org/2000/svg" x="0px" y="0px" viewBox="0 0 100 20" enable-background="new 0 0 100 20" xml:space="preserve"><path fill="#181717" d="M90,0.5c-5.2,0-9.5,4.3-9.5,9.5c0,4.2,2.7,7.8,6.5,9c0.5,0.1,0.6-0.2,0.6-0.5c0-0.2,0-0.8,0-1.6 c-2.6,0.6-3.2-1.3-3.2-1.3c-0.4-1.1-1.1-1.4-1.1-1.4c-0.9-0.6,0.1-0.6,0.1-0.6c1,0.1,1.5,1,1.5,1c0.8,1.5,2.2,1,2.8,0.8 c0.1-0.6,0.3-1,0.6-1.3c-2.1-0.2-4.3-1.1-4.3-4.7c0-1,0.4-1.9,1-2.5c-0.1-0.2-0.4-1.2,0.1-2.5c0,0,0.8-0.3,2.6,1 c0.8-0.2,1.6-0.3,2.4-0.3c0.8,0,1.6,0.1,2.4,0.3c1.8-1.2,2.6-1,2.6-1c0.5,1.3,0.2,2.3,0.1,2.5c0.6,0.7,1,1.5,1,2.5 c0,3.6-2.2,4.5-4.3,4.7c0.3,0.3,0.6,0.9,0.6,1.8c0,1.3,0,2.3,0,2.6c0,0.3,0.2,0.5,0.7,0.5c3.8-1.3,6.5-4.8,6.5-9 C99.5,4.8,95.2,0.5,90,0.5"/><path fill="#05CC47" d="M75.7,0.5L75.7,0.5L75.7,0.5h-3.3l-0.4,0.4L70.4,4l-0.5,0.3h-5.6v4.8h3l0.3,0.3l-3.3,6.4v3.8l0,0 l0,0h3.3l0.4-0.4l1.7-3.2l0.5-0.3h5.6v-4.8h-3l-0.3-0.3l3.3-6.4"/><g><rect x="40.5" y="0.5" fill="#F8682C" width="9.1" height="9.1"/><rect x="50.4" y="0.5" fill="#91C300" width="9.1" height="9.1"/><rect x="40.5" y="10.4" fill="#00B4F1" width="9.1" height="9.1"/><rect x="50.4" y="10.4" fill="#FFC300" width="9.1" height="9.1"/></g><path fill="#DC4E41" d="M26.5,15.8c-3.2,0-5.9-2.8-5.9-6.2c0-3.3,2.6-5.8,5.9-5.8c1.3,0,2.5,0.5,3.8,1.6l-1.4,1.7 c-0.8-0.7-1.6-1-2.3-1c-2.1,0-3.7,1.6-3.7,3.7c0,2.1,1.8,4,3.7,4c1.6,0,3-1.1,3.5-2.4h-3.9V9.1h6.3v1.1 C32.5,12.8,29.9,15.8,26.5,15.8z M38,7.3h-1.8v5.1H38V7.3z M39.6,8.9h-5.1v1.8h5.1V8.9z"/><path fill="#3B5998" d="M18.5,0.5H1.5c-0.6,0-1,0.5-1,1v16.9c0,0.6,0.5,1,1,1h9.1v-7.4H8.2V9.3h2.5V7.2 c0-2.5,1.5-3.8,3.7-3.8c1,0,1.9,0.1,2.2,0.1V6H15c-1.2,0-1.4,0.6-1.4,1.4v1.8h2.8l-0.4,2.9h-2.5v7.4h4.8c0.6,0,1-0.5,1-1V1.5 C19.5,1,19,0.5,18.5,0.5"/></svg>
