<svg version="1.1" id="CuStudy_Logo" opacity="0.1" xmlns="http://www.w3.org/2000/svg" x="0px" y="0px" viewBox="0 0 400 380" enable-background="new 0 0 400 380" xml:space="preserve"><defs><filter id="Adobe_OpacityMaskFilter" filterUnits="userSpaceOnUse" x="18.8" y="34.5" width="302.2" height="302.7"><feColorMatrix  type="matrix" values="1 0 0 0 0  0 1 0 0 0  0 0 1 0 0  0 0 0 1 0"/></filter></defs><mask maskUnits="userSpaceOnUse" x="18.8" y="34.5" width="302.2" height="302.7" id="SVGID_1_"><g filter="url(#Adobe_OpacityMaskFilter)"><path fill="#FFFFFF" d="M-62.8-79v544h548V-79H-62.8z M397.3,178.8l-6.2,8.5C346.8,247.9,301,310.5,300,359.5l-1.4,70.1 l-35.8-60.2c-25.6-43-21-90.9-10.8-135.1c-11.3-0.4-71.4-2.7-71.4-2.7l22.2-30.4l6.2-8.4c44.4-60.6,90.3-123.3,91.4-172.3 l1.5-69.8l35.7,60c25.6,43,21,90.9,10.8,135.1c11.2,0.4,71.1,2.7,71.1,2.7L397.3,178.8z"/></g></mask><g mask="url(#SVGID_1_)"><path fill="#171D2D" d="M18.8,185.8c0,0,0-0.8,0.1-2.4c0-0.8,0.1-1.8,0.1-2.9c0-0.3,0-0.6,0-0.9c0-0.3,0-0.6,0.1-1.1 c0.1-0.9,0.1-1.8,0.2-2.8c0.1-1,0.2-2.1,0.2-3.2c0.1-1.1,0.2-2.3,0.3-3.4c0.3-2.3,0.6-4.7,1-7.4c0.5-2.6,0.9-5.5,1.6-8.5 c0.4-1.5,0.7-3,1.1-4.6c0.2-0.8,0.4-1.6,0.6-2.4c0.2-0.8,0.5-1.6,0.7-2.5c0.5-1.7,1-3.3,1.5-5.1c0.6-1.7,1.2-3.5,1.9-5.3 c0.6-1.8,1.4-3.6,2.1-5.4c0.8-1.8,1.5-3.7,2.5-5.6c3.5-7.5,7.8-15.4,13.3-23.2c1.3-2,2.8-3.9,4.3-5.9c1.5-2,3.1-3.9,4.7-5.8 c1.6-2,3.4-3.8,5.1-5.7c1.7-1.9,3.7-3.7,5.6-5.6c7.7-7.4,16.5-14.2,26.4-20.2c10-5.9,20.9-11,32.7-14.6c1.5-0.5,3-0.9,4.5-1.3 c1.5-0.4,3-0.8,4.5-1.2c1.5-0.3,3.1-0.7,4.6-1l2.3-0.5l2.3-0.4c1.6-0.3,3.1-0.5,4.7-0.8c1.6-0.2,3.2-0.4,4.7-0.6 c3.2-0.4,6.4-0.6,9.6-0.8c1.6-0.1,3.2-0.1,4.8-0.1c1.6,0,3.2-0.1,4.9,0c1.6,0.1,3.3,0.1,4.9,0.2l2.4,0.1c-0.3,0,0.8,0,0.8,0l0.3,0 l0.5,0.1l1.1,0.1c1.4,0.1,2.9,0.3,4.3,0.4l0.5,0.1l0.6,0.1l1.3,0.2l2.6,0.3c3.6,0.4,6.7,1.1,10,1.7c6.5,1.4,13,3.2,19.4,5.5 c3.2,1.1,6.3,2.4,9.5,3.7c1.6,0.7,3.1,1.4,4.6,2.1l2.3,1.1l2.3,1.2c24.2,12.5,45.3,31.9,59.6,55.7c3.6,5.9,6.7,12.1,9.5,18.5l2,4.8 c0.6,1.6,1.2,3.3,1.8,4.9c0.3,0.8,0.6,1.6,0.9,2.5l0.8,2.5c0.5,1.7,1.1,3.3,1.5,5l1.3,5c0.4,1.7,0.7,3.4,1.1,5.1l0.5,2.5l0.4,2.6 c0.3,1.7,0.6,3.4,0.8,5.1l0.6,5.2c0.2,1.7,0.3,3.5,0.4,5.2c0.1,1.7,0.3,3.5,0.3,5.2l0.1,5.4l-0.1,4.9c0,0.8,0,1.6-0.1,2.5l-0.2,2.7 l-0.2,2.7c-0.1,0.9-0.1,1.8-0.3,2.6l-0.6,5.2c-1.1,6.8-2.4,13.7-4.4,20.3c-0.4,1.7-1,3.3-1.5,5l-0.8,2.5c-0.3,0.8-0.6,1.6-0.9,2.4 c-0.6,1.6-1.2,3.3-1.8,4.9l-2,4.8c-2.8,6.3-6,12.4-9.6,18.3c-3.7,5.8-7.6,11.5-12,16.8c-4.4,5.3-9,10.3-14.1,14.9 c-1.2,1.2-2.6,2.3-3.8,3.4c-1.3,1.1-2.6,2.3-3.9,3.3c-1.3,1.1-2.7,2.1-4,3.2c-1.4,1-2.8,2-4.1,3c-1.4,1-2.8,1.9-4.2,2.8 c-1.4,0.9-2.8,1.9-4.3,2.7c-1.5,0.9-2.9,1.7-4.4,2.6c-1.5,0.8-3,1.6-4.5,2.4l-2.2,1.2l-2.3,1.1c-1.5,0.7-3,1.4-4.6,2.1 c-3.1,1.2-6.2,2.6-9.4,3.7c-6.3,2.3-12.7,4-19.2,5.5c-3.2,0.6-6.5,1.3-9.7,1.8c-1.6,0.2-3.2,0.5-4.9,0.7c-1.6,0.2-3.3,0.3-4.9,0.5 l-1.2,0.1l-0.6,0.1l-0.3,0c0,0-1,0-0.7,0l-2.2,0.1c-1.4,0.1-2.9,0.1-4.3,0.2c-1.6,0-3.4,0-5.1,0c-1.7,0-3.4,0-5-0.1 c-12.8-0.6-25.3-2.7-37.1-6.3c-11.7-3.6-22.7-8.5-32.7-14.3c-2.5-1.5-4.9-3-7.3-4.5c-2.3-1.6-4.6-3.2-6.8-4.9 c-4.4-3.4-8.6-6.8-12.4-10.5c-7.7-7.3-14.3-15-19.8-22.8c-1.3-2-2.7-3.9-3.9-5.8c-1.2-2-2.4-3.9-3.6-5.8c-1.1-2-2.1-3.9-3.1-5.8 c-1-1.9-1.9-3.8-2.8-5.7c-3.5-7.5-6.2-14.7-8.1-21.3c-3.9-13.3-5.2-24.1-5.7-31.5c-0.3-3.7-0.3-6.5-0.4-8.4c0-1.9-0.1-2.9-0.1-2.9 L18.8,185.8z M73.8,186.4c0,0,0,0.7,0,1.9c0.1,1.3,0,3.1,0.2,5.6c0.3,4.9,1,12,3.3,20.8c0.3,1.1,0.6,2.2,0.9,3.4 c0.4,1.1,0.7,2.3,1.1,3.5c0.3,1.2,0.8,2.4,1.2,3.7c0.5,1.2,0.8,2.5,1.4,3.8c0.5,1.3,1,2.6,1.6,3.9c0.6,1.3,1.2,2.6,1.9,4 c0.7,1.3,1.4,2.7,2.1,4.1c0.7,1.4,1.5,2.7,2.3,4.1c3.3,5.5,7.2,11.2,11.9,16.8c4.7,5.6,10.3,11,16.6,16.1c6.4,5,13.6,9.7,21.7,13.6 c8,4,17,7,26.5,9c1.2,0.3,2.3,0.5,3.4,0.7c1.1,0.2,2.2,0.4,3.4,0.6c1.4,0.1,2.8,0.3,4.3,0.4l2.1,0.2c0.5,0-0.3,0-0.2,0l0.2,0l0.5,0 l0.9,0.1c1.3,0.1,2.5,0.2,3.8,0.2c1.3,0.1,2.6,0,3.8,0.1c2.6,0.1,5.2-0.1,7.8-0.2c5.2-0.4,10.5-1,15.8-2.1c2.7-0.5,5.3-1.2,7.9-1.9 c1.3-0.4,2.6-0.8,3.9-1.2l2-0.6l1.9-0.7c20.9-7.4,40.7-21.7,54.8-41.3l2.6-3.7c0.8-1.2,1.6-2.6,2.4-3.8c0.4-0.6,0.8-1.3,1.2-1.9 l1.1-2c0.7-1.3,1.5-2.6,2.1-4c2.8-5.4,5-11.1,6.9-16.9c1.9-5.8,3.2-11.8,4.1-17.9l0.6-4.6c0.1-0.8,0.2-1.5,0.2-2.3l0.2-2.2l0.2-2.2 c0.1-0.7,0.1-1.6,0.1-2.4l0.1-4.9l-0.1-4.4c0-1.5-0.1-3.1-0.3-4.6c-0.1-1.5-0.2-3.1-0.4-4.6l-0.6-4.6c-1-6.1-2.4-12-4.4-17.8 c-2-5.8-4.3-11.4-7.2-16.7c-2.9-5.3-6-10.4-9.6-15.2c-3.6-4.8-7.4-9.3-11.6-13.4c-4.2-4.1-8.6-8-13.2-11.4 c-9.3-6.8-19.4-12.1-29.7-15.8l-1.9-0.7l-2-0.6c-1.3-0.4-2.6-0.8-3.9-1.2c-2.6-0.6-5.2-1.4-7.8-1.9c-5.2-1.1-10.5-1.7-15.6-2.1 c-2.6-0.1-5.2-0.3-7.5-0.2l-1.8,0l-0.9,0l-0.4,0l-0.5,0c-1.5,0.1-2.9,0.1-4.3,0.2l-1.1,0.1l-0.5,0l-0.3,0c-0.2,0,0.7,0,0.2,0 l-1.9,0.2c-1.2,0.1-2.5,0.3-3.7,0.4c-1.2,0.2-2.4,0.4-3.6,0.6c-1.2,0.2-2.4,0.4-3.6,0.6c-9.5,1.9-18.3,4.9-26.3,8.7 c-8,3.8-15.3,8.3-21.7,13.3c-6.4,4.9-11.9,10.4-16.7,15.9c-1.2,1.4-2.4,2.7-3.4,4.2c-1.1,1.4-2.2,2.8-3.1,4.2c-1,1.4-2,2.7-2.9,4.2 c-0.9,1.4-1.8,2.7-2.6,4.2c-6.6,11-10.4,21.6-12.6,30.4c-0.1,0.5-0.3,1.1-0.4,1.6c-0.1,0.5-0.2,1.1-0.3,1.6 c-0.2,1.1-0.4,2.1-0.6,3.1c-0.2,1-0.3,2-0.5,2.9c-0.2,0.9-0.3,1.8-0.5,2.7c-0.2,1.8-0.4,3.4-0.6,4.9c-0.1,0.8-0.1,1.3-0.2,2 c0,0.6-0.1,1.2-0.1,1.7c0,0.5-0.1,1-0.1,1.5c0,0.2,0,0.5,0,0.9c0,0.3,0,0.6,0,0.9c0,1.2,0,2.2-0.1,2.9c0,1.6,0,2.4,0,2.4 L73.8,186.4z"/></g><path fill="#171D2D" d="M381.2,167c-19.4-0.7-38.8-1.4-58.2-2.2C336.7,114,346.1,64,320.4,20.9C319.2,78.6,268,146,219,213 c19.5,0.7,39,1.5,58.5,2.2C263.8,266,254.4,316,280,359.1C281.2,301.4,332.3,234,381.2,167z"/></svg>
