<svg version="1.1" xmlns="http://www.w3.org/2000/svg" x="0px" y="0px"  viewBox="0 0 350 35" enable-background="new 0 0 350 35" xml:space="preserve"><path fill="#171D2D" d="M32.6,8.5c1.1,2.6-1.6,5.3-4.2,4.3c-0.9-0.3-1.5-1-1.8-1.9c-0.5-1.2-0.9-2.3-1.7-3.4c-1.7-2.2-4.1-4-6.8-4.7 c-5.4-1.4-11.3,0.8-14.8,5c3.3-5.2,9.1-7.6,15.1-7.6C23.9,0.1,30.1,3.5,32.6,8.5C32.8,8.9,32.3,7.9,32.6,8.5z M2.4,26.5 c2.5,5,8.7,8.3,14.2,8.3c6.1,0,11.8-2.4,15.1-7.6c-3.5,4.2-9.4,6.4-14.8,5c-2.7-0.7-5.1-2.4-6.8-4.7c-0.8-1.1-1.3-2.2-1.7-3.4 c-0.3-0.9-0.9-1.5-1.8-1.9C4,21.2,1.3,23.9,2.4,26.5C2.7,27.1,2.2,26.1,2.4,26.5z M69.7,13.6C68.8,8,63.9,3,58.7,1.3 c-5.8-1.9-12-1.3-16.8,2.6C46.6,1,52.9,0.7,57.6,3.7c2.4,1.5,4.1,3.9,5,6.5c0.4,1.3,0.5,2.5,0.6,3.8c0,0.9,0.4,1.8,1.1,2.4 C66.5,18.2,69.9,16.4,69.7,13.6C69.6,12.9,69.7,14,69.7,13.6z M35.3,21.4c0.9,5.5,5.7,10.6,11,12.3c5.8,1.9,12,1.3,16.8-2.6 c-4.7,2.9-10.9,3.2-15.7,0.2c-2.4-1.5-4.1-3.9-5-6.5c-0.4-1.3-0.5-2.5-0.6-3.8c0-0.9-0.4-1.8-1.1-2.4C38.5,16.8,35.1,18.6,35.3,21.4 C35.4,22.1,35.3,21,35.3,21.4z M105,19.1c0.9-5.5-2.2-11.9-6.6-15.1c-4.9-3.5-11-4.9-16.7-2.7C87,0,93,1.6,96.6,5.9 c1.8,2.2,2.7,5,2.8,7.8c0,1.3-0.3,2.5-0.6,3.8c-0.3,0.9-0.1,1.8,0.4,2.6C100.6,22.5,104.4,21.9,105,19.1 C105.1,18.4,104.9,19.5,105,19.1z M70,15.9c-0.9,5.5,2.2,11.9,6.6,15.1c4.9,3.5,11,4.9,16.7,2.7C88,35,82,33.4,78.4,29.1 c-1.8-2.2-2.7-5-2.8-7.8c0-1.3,0.3-2.5,0.6-3.8c0.3-0.9,0.1-1.8-0.4-2.6C74.4,12.5,70.6,13.1,70,15.9C69.9,16.6,70.1,15.5,70,15.9z  M138.7,24.4c2.6-5,1.6-12-1.6-16.4c-3.6-4.9-8.9-8.1-15.1-7.7c5.5,0.4,10.7,3.8,12.8,9c1,2.6,1,5.6,0.2,8.2c-0.4,1.3-1,2.3-1.8,3.4 c-0.5,0.8-0.7,1.7-0.5,2.6C133.4,26.3,137.2,26.9,138.7,24.4C139,23.8,138.5,24.8,138.7,24.4z M106.3,10.6c-2.6,5-1.6,12,1.6,16.4 c3.6,4.9,8.9,8.1,15.1,7.7c-5.5-0.4-10.7-3.8-12.8-9c-1-2.6-1-5.6-0.2-8.2c0.4-1.3,1-2.3,1.8-3.4c0.5-0.8,0.7-1.7,0.5-2.6 C111.6,8.7,107.8,8.1,106.3,10.6C106,11.2,106.5,10.2,106.3,10.6z M170.8,29.1c4-4,5.2-10.9,3.5-16.1c-1.9-5.8-6-10.5-11.9-12 c5.1,2.1,9,6.9,9.4,12.6c0.2,2.8-0.7,5.6-2.3,7.9c-0.8,1.1-1.7,1.9-2.7,2.7c-0.7,0.6-1.2,1.4-1.2,2.3 C165.2,29.2,168.6,31,170.8,29.1C171.2,28.6,170.4,29.4,170.8,29.1z M144.2,5.9c-4,4-5.2,10.9-3.5,16.1c1.9,5.8,6,10.5,11.9,12 c-5.1-2.1-9-6.9-9.4-12.6c-0.2-2.8,0.7-5.6,2.3-7.9c0.8-1.1,1.7-1.9,2.7-2.7c0.7-0.6,1.2-1.4,1.2-2.3C149.8,5.8,146.4,4,144.2,5.9 C143.8,6.4,144.6,5.6,144.2,5.9z M201.5,32.6c5-2.5,8.3-8.7,8.3-14.2c0-6.1-2.4-11.8-7.6-15.1c4.2,3.5,6.4,9.4,5,14.8 c-0.7,2.7-2.4,5.1-4.7,6.8c-1.1,0.8-2.2,1.3-3.4,1.7c-0.9,0.3-1.5,0.9-1.9,1.8C196.2,31,198.9,33.7,201.5,32.6 C202.1,32.3,201.1,32.8,201.5,32.6z M183.5,2.4c-5,2.5-8.3,8.7-8.3,14.2c0,6.1,2.4,11.8,7.6,15.1c-4.2-3.5-6.4-9.4-5-14.8 c0.7-2.7,2.4-5.1,4.7-6.8c1.1-0.8,2.2-1.3,3.4-1.7c0.9-0.3,1.5-0.9,1.9-1.8C188.8,4,186.1,1.3,183.5,2.4 C182.9,2.7,183.9,2.2,183.5,2.4z M231.4,34.7c5.5-0.9,10.6-5.7,12.3-11c1.9-5.8,1.3-12-2.6-16.8c2.9,4.7,3.2,10.9,0.2,15.7 c-1.5,2.4-3.9,4.1-6.5,5c-1.3,0.4-2.5,0.5-3.8,0.6c-0.9,0-1.8,0.4-2.4,1.1C226.8,31.5,228.6,34.9,231.4,34.7 C232.1,34.6,231,34.7,231.4,34.7z M223.6,0.3c-5.5,0.9-10.6,5.7-12.3,11c-1.9,5.8-1.3,12,2.6,16.8c-2.9-4.7-3.2-10.9-0.2-15.7 c1.5-2.4,3.9-4.1,6.5-5c1.3-0.4,2.5-0.5,3.8-0.6c0.9,0,1.8-0.4,2.4-1.1C228.2,3.5,226.4,0.1,223.6,0.3C222.9,0.4,224,0.3,223.6,0.3z  M260.9,35c5.5,0.9,11.9-2.2,15.1-6.6c3.5-4.9,4.9-11,2.7-16.7c1.3,5.3-0.3,11.4-4.6,15c-2.2,1.8-5,2.7-7.8,2.8 c-1.3,0-2.5-0.3-3.8-0.6c-0.9-0.3-1.8-0.1-2.6,0.4C257.5,30.6,258.1,34.4,260.9,35C261.6,35.1,260.5,34.9,260.9,35z M264.1,0 c-5.5-0.9-11.9,2.2-15.1,6.6c-3.5,4.9-4.9,11-2.7,16.7c-1.3-5.3,0.3-11.4,4.6-15c2.2-1.8,5-2.7,7.8-2.8c1.3,0,2.5,0.3,3.8,0.6 c0.9,0.3,1.8,0.1,2.6-0.4C267.5,4.4,266.9,0.6,264.1,0C263.4-0.1,264.5,0.1,264.1,0z M290.6,33.7c5,2.6,12,1.6,16.4-1.6 c4.9-3.6,8.1-8.9,7.7-15.1c-0.4,5.5-3.8,10.7-9,12.8c-2.6,1-5.6,1-8.2,0.2c-1.3-0.4-2.3-1-3.4-1.8c-0.8-0.5-1.7-0.7-2.6-0.5 C288.7,28.4,288.1,32.2,290.6,33.7C291.2,34,290.2,33.5,290.6,33.7z M304.4,1.3c-5-2.6-12-1.6-16.4,1.6c-4.9,3.6-8.1,8.9-7.7,15.1 c0.4-5.5,3.8-10.7,9-12.8c2.6-1,5.6-1,8.2-0.2c1.3,0.4,2.3,1,3.4,1.8c0.8,0.5,1.7,0.7,2.6,0.5C306.3,6.6,306.9,2.8,304.4,1.3 C303.8,1,304.8,1.5,304.4,1.3z M320.9,30.8c4,4,10.9,5.2,16.1,3.5c5.8-1.9,10.5-6,12-11.9c-2.1,5.1-6.9,9-12.6,9.4 c-2.8,0.2-5.6-0.7-7.9-2.3c-1.1-0.8-1.9-1.7-2.7-2.7c-0.6-0.7-1.4-1.2-2.3-1.2C320.8,25.2,319,28.6,320.9,30.8 C321.4,31.2,320.6,30.4,320.9,30.8z M344.1,4.2c-4-4-10.9-5.2-16.1-3.5c-5.8,1.9-10.5,6-12,11.9c2.1-5.1,6.9-9,12.6-9.4 c2.8-0.2,5.6,0.7,7.9,2.3c1.1,0.8,1.9,1.7,2.7,2.7c0.6,0.7,1.4,1.2,2.3,1.2C344.2,9.8,346,6.4,344.1,4.2 C343.6,3.8,344.4,4.6,344.1,4.2z"/></svg>
