<?xml version="1.0" standalone="no"?>
<!DOCTYPE svg PUBLIC "-//W3C//DTD SVG 20010904//EN"
 "http://www.w3.org/TR/2001/REC-SVG-20010904/DTD/svg10.dtd">
<svg version="1.0" xmlns="http://www.w3.org/2000/svg"
 width="363.000000pt" height="363.000000pt" viewBox="0 0 363.000000 363.000000"
 preserveAspectRatio="xMidYMid meet">
<metadata>
Created by potrace 1.11, written by Peter Selinger 2001-2013
</metadata>
<g transform="translate(0.000000,363.000000) scale(0.100000,-0.100000)"
fill="#000000" stroke="none">
<path d="M3019 3480 c0 -19 -2 -46 -4 -60 -3 -14 -7 -43 -11 -65 -3 -22 -8
-53 -11 -70 -2 -16 -24 -90 -48 -163 -114 -342 -341 -717 -862 -1426 -40 -55
-71 -101 -69 -103 4 -4 48 -6 376 -19 96 -3 181 -6 188 -7 7 0 10 -7 8 -16 -6
-19 -63 -260 -76 -316 -90 -405 -67 -757 68 -1035 l37 -75 7 55 c4 30 9 73 12
95 17 149 113 414 223 618 24 44 43 84 43 89 0 4 5 8 10 8 6 0 10 5 10 12 0
13 188 315 283 453 68 100 292 410 374 520 29 39 53 72 53 75 0 3 -28 5 -63 6
-172 1 -503 16 -509 22 -3 4 9 66 28 137 19 72 37 150 40 175 3 25 8 48 10 51
2 3 6 21 9 40 3 19 10 59 15 89 28 164 31 405 6 545 -18 104 -54 220 -96 308
-44 92 -50 99 -51 57z"/>
<path d="M1457 3374 c-1 -1 -40 -4 -87 -7 -47 -4 -96 -9 -110 -12 -54 -11 -67
-14 -110 -24 -25 -7 -52 -13 -60 -15 -50 -13 -178 -65 -255 -103 -316 -157
-578 -440 -714 -770 -31 -75 -76 -225 -86 -283 -3 -19 -7 -46 -10 -60 -3 -14
-7 -43 -10 -65 -6 -48 -8 -343 -2 -353 3 -4 7 -29 11 -57 3 -27 8 -57 9 -65
63 -308 210 -576 434 -793 114 -111 219 -185 369 -261 85 -43 265 -109 328
-120 16 -3 55 -11 85 -18 89 -20 457 -16 551 6 41 9 84 19 95 21 58 13 198 65
278 105 l92 45 -2 65 c-1 36 -3 99 -4 141 l-1 77 -73 -34 c-278 -129 -620
-134 -907 -15 -511 213 -810 774 -697 1306 82 384 349 699 714 843 139 55 243
75 400 76 77 0 160 -3 184 -7 117 -19 273 -70 366 -120 68 -37 196 -127 233
-164 l35 -35 16 21 c9 11 36 59 61 106 l45 85 -25 25 c-292 290 -669 454
-1058 459 -52 1 -94 1 -95 0z"/>
</g>
</svg>
